<svg xmlns="http://www.w3.org/2000/svg" width="200" height="200" class="icon" viewBox="0 0 1024 1024"><path fill="#2c2c2c" d="M0 0h1024v1024H0z" class="custom-cursor-on-hover" opacity=".01"/><path fill="#2c2c2c" d="M341.33 34.13A170.67 170.67 0 0 0 170.67 204.8v614.4a170.67 170.67 0 0 0 170.66 170.67h341.34A170.67 170.67 0 0 0 853.33 819.2V204.8A170.67 170.67 0 0 0 682.67 34.13H341.33zM785.07 716.8H238.93v-512a102.4 102.4 0 0 1 102.4-102.4h341.34a102.4 102.4 0 0 1 102.4 102.4v512zm-546.14 68.27h546.14v34.13a102.4 102.4 0 0 1-102.4 102.4H341.33a102.4 102.4 0 0 1-102.4-102.4v-34.13zm238.94 34.13a34.13 34.13 0 1 0 0 68.27h68.26a34.13 34.13 0 1 0 0-68.27h-68.26z" class="custom-cursor-on-hover"/></svg>