<svg xmlns="http://www.w3.org/2000/svg" width="200" height="200" class="icon" viewBox="0 0 1024 1024"><path d="M216.47 358.65C245.18 222.33 366.14 120 511 120c144.86 0 265.82 102.33 294.53 238.65C887.64 365.99 952 434.98 952 519v28c0 88.19-70.9 159.82-158.81 160.99C750.57 822.46 640.3 904 511 904a35 35 0 1 1 0-70c127.58 0 231-103.42 231-231V421c0-127.58-103.42-231-231-231S280 293.42 280 421v252a35 35 0 0 1-35 35h-14c-88.92 0-161-72.08-161-161v-28c0-84.02 64.36-153 146.47-160.35zM210 430.44c-40.13 9.48-70 45.53-70 88.56v28c0 43.03 29.87 79.08 70 88.56V430.45zM812 603v32.56c40.13-9.47 70-45.53 70-88.56v-28c0-43.03-29.87-79.08-70-88.56V603z"/></svg>