<svg xmlns="http://www.w3.org/2000/svg" width="200" height="200" class="icon" viewBox="0 0 1024 1024"><path fill="#272536" d="M758.17 917.74c-65.16 0-118.04-52.88-118.04-118.05 0-4.17.24-7.88.46-11.36H443a19.94 19.94 0 0 1-9.04 2.09H371.8A117.93 117.93 0 0 1 254.7 893.16c-59.37 0-109.46-44.06-117.12-102.74H75.88a21.28 21.28 0 0 1-21.33-21.34v-298.7c0-3.94 1.15-7.89 3-11.13l102.75-167.9c24.58-38.97 61-58.68 108.53-58.68h144.02c4.4-71.43 63.32-127.1 134.97-127.1h285.03c74.68 0 135.2 60.77 135.2 135.21v440.87c0 53.8-39.89 99.03-93 105.99.47 3.94.7 8.11.7 12.29.47 64.93-52.4 117.8-117.57 117.8zm0-193.42c-41.5 0-75.37 33.86-75.37 75.37s33.87 75.37 75.38 75.37 75.37-33.86 75.37-75.37-33.63-75.37-75.38-75.37zM254.7 699.73c-41.5 0-75.37 33.87-75.37 75.6 0 41.52 33.86 75.38 75.37 75.38s75.37-33.86 75.37-75.37c0-41.75-33.86-75.6-75.37-75.6zm0-42.44c54.27 0 102.28 38.04 114.8 90.68h43.13l.24-472.87H269.07c-32.7 0-55.66 12.29-72.35 38.72L97.22 476.4v271.57h42.45c12.75-52.64 60.75-90.68 115.02-90.68zm398.66 88.6c20.4-39.66 60.53-64.01 105.06-64.01s84.64 24.58 105.05 64c34.79-.7 62.85-29.22 62.85-64.24V240.78c0-51.03-41.5-92.77-92.76-92.77H548.29c-51.02 0-92.76 41.51-92.76 92.77v505.1h197.82zm-479.13-250c-11.83 0-21.34-9.51-21.34-21.34s9.5-21.34 21.34-21.34h101.34V351.86c0-11.82 9.51-21.33 21.34-21.33s21.34 9.5 21.34 21.33v122.68a21.28 21.28 0 0 1-21.34 21.34H174.22z"/></svg>