<svg xmlns="http://www.w3.org/2000/svg" width="200" height="200" class="icon" viewBox="0 0 1024 1024"><path fill="#d81e06" d="M923.26 252.29H760.55a154.98 154.98 0 0 0 33.36-96.2A155.96 155.96 0 0 0 638.13.3a155.65 155.65 0 0 0-125.7 63.87A155.65 155.65 0 0 0 386.74.3a155.96 155.96 0 0 0-155.82 155.77c0 36.28 12.5 69.71 33.36 96.2H101.63A100.86 100.86 0 0 0 .87 353.06v125.29a100.92 100.92 0 0 0 72.2 96.61v344.4a98.4 98.4 0 0 0 98.3 98.3H500.7a29.98 29.98 0 0 0 23.48 0H853.5a98.4 98.4 0 0 0 98.3-98.3V574.98a100.92 100.92 0 0 0 72.2-96.64V353.05a100.86 100.86 0 0 0-100.74-100.76zM638.13 60.44a95.74 95.74 0 0 1 95.62 95.64 95.74 95.74 0 0 1-95.52 95.62H542.5V155.9a95.74 95.74 0 0 1 95.64-95.48zm-251.4 0a95.74 95.74 0 0 1 95.63 95.57v95.69h-95.83a95.74 95.74 0 0 1-95.43-95.62 95.74 95.74 0 0 1 95.61-95.64zM61 478.34V353.05a40.7 40.7 0 0 1 40.6-40.6h380.76v206.49H101.6a40.7 40.7 0 0 1-40.6-40.6zm72.2 441V579.1h349.16v378.34H171.32c-21 0-38.12-17.08-38.12-38.12zm720.3 38.15H542.52V579.07h349.13v340.25a38.14 38.14 0 0 1-38.15 38.15zm110.34-479.15a40.7 40.7 0 0 1-40.58 40.6H542.52v-206.5h380.74a40.7 40.7 0 0 1 40.58 40.61v125.29z"/></svg>