<svg xmlns="http://www.w3.org/2000/svg" width="200" height="200" class="icon" viewBox="0 0 1024 1024"><path d="M822.14 96A137.86 137.86 0 0 1 960 233.86v146.68a34.46 34.46 0 0 1-12.48 26.56 154.66 154.66 0 0 0-56.45 119.68 154.8 154.8 0 0 0 56.42 119.65A34.43 34.43 0 0 1 960 672.96v112.26a137.86 137.86 0 0 1-137.86 137.85H201.86A137.86 137.86 0 0 1 64 785.22V672.99a34.46 34.46 0 0 1 12.48-26.56 154.66 154.66 0 0 0 56.45-119.68A154.66 154.66 0 0 0 76.5 407.1 34.43 34.43 0 0 1 64 380.58V233.86A137.86 137.86 0 0 1 201.86 96h620.28zm0 68.93H201.86a68.91 68.91 0 0 0-68.93 68.93v131.3a223.46 223.46 0 0 1 68.93 161.6 223.46 223.46 0 0 1-68.93 161.62v96.84a68.91 68.91 0 0 0 68.93 68.92h620.28a68.91 68.91 0 0 0 68.93-68.92v-96.84a223.46 223.46 0 0 1-68.93-161.6 223.43 223.43 0 0 1 68.93-161.63v-131.3a68.91 68.91 0 0 0-68.93-68.92zM669.5 288.64a32 32 0 0 1 14.15 53.98L574.4 451.87H672a32 32 0 0 1 0 64H544v64h128a32 32 0 0 1 0 64H544v96a32 32 0 0 1-64 0v-96H352a32 32 0 0 1 0-64h128v-64H352a32 32 0 0 1 0-64h108.2L350.93 342.62a32 32 0 0 1 45.25-45.24l121.12 121.08L638.4 297.38a32 32 0 0 1 31.14-8.74z"/></svg>