<svg xmlns="http://www.w3.org/2000/svg" width="200" height="200" class="icon" viewBox="0 0 1024 1024"><path fill="#2c2c2c" d="M571.8 63.9H273.3c-41.7 0-75.6 34.2-75.6 76.2v740.1c0 42 33.9 76.2 75.6 76.2h514c41.7 0 75.6-34.2 75.6-76.2v-523L571.8 63.9zm63.3 156.9 84.9 85.6h-84.9v-85.6zm163 659.4c0 6-4.8 10.9-10.8 10.9h-514c-6 0-10.8-4.9-10.8-10.9V140.1c0-6 4.8-10.9 10.8-10.9h298.6l-1.5 242.6h227.7v508.4z"/><path fill="#2c2c2c" d="M324.8 518a32.4 32.4 0 0 0 32.4 32.4h346a32.4 32.4 0 1 0 0-64.8h-346a32.33 32.33 0 0 0-32.4 32.4zm378.5 97.3h-346a32.4 32.4 0 1 0 0 64.8h346a32.4 32.4 0 1 0 0-64.8zm0 129.7h-346a32.4 32.4 0 1 0 0 64.8h346a32.4 32.4 0 1 0 0-64.8z"/></svg>