<svg xmlns="http://www.w3.org/2000/svg" width="200" height="200" class="icon" viewBox="0 0 1024 1024"><path d="M809.98 279.55H83.97a22.73 22.73 0 0 0-22.53 22.53v495.1a22.73 22.73 0 0 0 22.53 22.53h174.08v115.2c0 8.7 5.12 16.9 13.31 20.48a20.08 20.08 0 0 0 9.22 2.05c5.12 0 10.75-2.05 14.84-5.63L448 819.7h361.98a22.73 22.73 0 0 0 22.53-22.53v-495.1a22.4 22.4 0 0 0-22.53-22.53zM772.61 767.5H439.8c-5.12 0-10.24 2.05-14.34 5.12L309.25 873.47V789c0-11.77-9.73-21.5-21.5-21.5h-166.4v-430.6H772.6v430.6z"/><path d="M652.29 479.74h-409.6c-12.29 0-22.53-12.28-22.53-27.64s10.24-27.65 22.53-27.65h409.6c12.29 0 22.53 12.29 22.53 27.65s-10.24 27.64-22.53 27.64zm-111.1 175.62h-293.9c-15.35 0-28.15-12.29-28.15-27.65s12.28-27.65 28.16-27.65h293.88a27.53 27.53 0 0 1 27.65 27.65 27.53 27.53 0 0 1-27.65 27.65z"/><path d="M933.38 128H220.16a28.62 28.62 0 0 0-28.67 28.67v88.58a6.23 6.23 0 0 0 6.14 6.14h47.1a6.23 6.23 0 0 0 6.15-6.14v-53.76a6.23 6.23 0 0 1 6.14-6.15H896a6.23 6.23 0 0 1 6.14 6.15v417.79a6.23 6.23 0 0 1-6.14 6.14h-22.53a6.23 6.23 0 0 0-6.14 6.15v39.93a6.23 6.23 0 0 0 6.14 6.15h59.9a29.17 29.17 0 0 0 29.19-29.19V156.67c0-15.87-13.31-28.67-29.18-28.67z"/></svg>